<svg xmlns="http://www.w3.org/2000/svg" width="26.32" height="12.084" viewBox="0 0 31.32 17.084"><path d="M32.82,11.847a2.856,2.856,0,0,1-2.847,2.847,2.42,2.42,0,0,1-.726-.1l-5.068,5.054a2.515,2.515,0,0,1,.1.74,2.847,2.847,0,0,1-5.695,0,2.515,2.515,0,0,1,.1-.74l-3.63-3.63a2.8,2.8,0,0,1-1.481,0L7.095,22.51a2.42,2.42,0,0,1,.1.726,2.847,2.847,0,1,1-2.847-2.847,2.42,2.42,0,0,1,.726.1l6.492-6.478a2.515,2.515,0,0,1-.1-.74,2.847,2.847,0,0,1,5.695,0,2.515,2.515,0,0,1-.1.74l3.63,3.63a2.8,2.8,0,0,1,1.481,0l5.054-5.068a2.42,2.42,0,0,1-.1-.726,2.847,2.847,0,0,1,5.695,0Z" transform="translate(-1.5 -9)"/></svg>