<svg xmlns="http://www.w3.org/2000/svg" width="25.927" height="16.07" viewBox="0 0 30.927 31.07"><path d="M9.745,27.807A13.576,13.576,0,0,1,2.017,16.829H.075a15.527,15.527,0,0,0,15.47,14.24l.854-.039L11.467,26.1ZM10.9,19.367a2.161,2.161,0,0,1-.673-.1,1.384,1.384,0,0,1-.518-.311,1.283,1.283,0,0,1-.337-.479,1.545,1.545,0,0,1-.117-.608H7.571a2.649,2.649,0,0,0,.272,1.23,2.862,2.862,0,0,0,.725.893,3.27,3.27,0,0,0,1.062.531,3.905,3.905,0,0,0,1.243.194,4.366,4.366,0,0,0,1.333-.194,3.157,3.157,0,0,0,1.074-.57,2.561,2.561,0,0,0,.712-.932,3.024,3.024,0,0,0,.259-1.256,2.715,2.715,0,0,0-.091-.725,2.162,2.162,0,0,0-.3-.66,2.327,2.327,0,0,0-.518-.557,2.662,2.662,0,0,0-.79-.4,2.715,2.715,0,0,0,.673-.427,2.675,2.675,0,0,0,.479-.544,2.281,2.281,0,0,0,.285-.6,2.064,2.064,0,0,0,.091-.621,3.129,3.129,0,0,0-.233-1.243,2.3,2.3,0,0,0-.66-.893,2.663,2.663,0,0,0-1-.557,4.718,4.718,0,0,0-1.32-.181,3.824,3.824,0,0,0-1.295.207,3.294,3.294,0,0,0-1.023.583,2.91,2.91,0,0,0-.66.867,2.58,2.58,0,0,0-.233,1.1H9.344a1.376,1.376,0,0,1,.117-.583,1.217,1.217,0,0,1,.324-.44,1.534,1.534,0,0,1,.492-.285,1.9,1.9,0,0,1,.621-.1,1.484,1.484,0,0,1,1.152.4,1.564,1.564,0,0,1,.375,1.113,1.974,1.974,0,0,1-.1.634,1.126,1.126,0,0,1-.324.479,1.642,1.642,0,0,1-.531.311,2.178,2.178,0,0,1-.751.117h-1v1.333h1a2.908,2.908,0,0,1,.777.091,1.549,1.549,0,0,1,.583.3,1.525,1.525,0,0,1,.375.518,1.835,1.835,0,0,1,.129.738,1.552,1.552,0,0,1-.453,1.2,1.659,1.659,0,0,1-1.23.427ZM21.966,11.7a4.311,4.311,0,0,0-1.476-1,4.87,4.87,0,0,0-1.89-.35H15.545V20.713h2.978a5.254,5.254,0,0,0,1.955-.35,4.266,4.266,0,0,0,1.5-.984,4.369,4.369,0,0,0,.958-1.541,5.922,5.922,0,0,0,.337-2.032v-.518a5.922,5.922,0,0,0-.337-2.032,4.524,4.524,0,0,0-.971-1.553Zm-.5,4.091a5.655,5.655,0,0,1-.181,1.463,3.147,3.147,0,0,1-.557,1.1,2.42,2.42,0,0,1-.919.686,3.327,3.327,0,0,1-1.282.233H17.345v-7.47H18.6a2.568,2.568,0,0,1,2.123.893,3.943,3.943,0,0,1,.738,2.576v.518ZM15.545,0l-.854.039,4.932,4.932,1.722-1.722A13.555,13.555,0,0,1,29.06,14.227H31A15.5,15.5,0,0,0,15.545,0Z" transform="translate(-0.075)"/></svg>